<svg xmlns="http://www.w3.org/2000/svg" xmlns:xlink="http://www.w3.org/1999/xlink" width="722" height="567" fill-rule="evenodd" clip-rule="evenodd" image-rendering="optimizeQuality" shape-rendering="geometricPrecision" text-rendering="geometricPrecision" viewBox="0 0 722 567.001" xml:space="preserve"><defs><style type="text/css">.str1,.str4{stroke:#4a7ebb;stroke-width:1.00394}.str4{stroke-width:1.53544;stroke-linecap:round;stroke-linejoin:round}.str0,.str3{stroke-width:2.95276}.str3{stroke:#000}.str0{stroke:#385d8a}.str5{stroke:#4a7ebb;stroke-width:1.53544;stroke-linecap:round;stroke-linejoin:round;stroke-dasharray:7.677182 6.141746}.str2{stroke:#385d8a;stroke-width:2.95276;stroke-dasharray:8.858287 2.952762}.fil0{fill:none}.fil1{fill:#000}.fil2{fill:#385d8a}.fil4{fill:#4f6228}.fil3{fill:#632523}.fnt0,.fnt1,.fnt2{font-weight:400;font-family:&apos;Arial&apos;}.fnt2{font-size:14.5831}.fnt1{font-size:20.8335}.fnt0{font-size:27.0839}</style></defs><g id="Capa_x0020_1"><metadata id="CorelCorpID_0Corel-Layer"/><rect width="721.987" height="567.014" x=".03" y="0" class="fil0"/><rect width="393.123" height="477.092" x="308.807" y="16.631" class="fil0 str0"/><line x1="308.807" x2="701.929" y1="281.617" y2="281.617" class="fil0 str1"/><line x1="308.807" x2="701.929" y1="364.628" y2="364.628" class="fil0 str1"/><line x1="308.807" x2="701.929" y1="160.536" y2="160.536" class="fil0 str1"/><line x1="520.791" x2="520.791" y1="16.631" y2="493.723" class="fil0 str2"/><line x1="429.756" x2="429.756" y1="16.631" y2="493.723" class="fil0 str2"/><text x="14.968" y="54.585" class="fil1 fnt0" font-size="24">Days of illness</text><text x="14.968" y="150.202" class="fil1 fnt0" font-size="24">Temperature</text><text x="14.968" y="246.252" class="fil1 fnt0" font-size="24">Potential clinical issues</text><text x="14.968" y="342.854" class="fil1 fnt0" font-size="24">Laboratory changes</text><text x="14.968" y="438.632" class="fil1 fnt0" font-size="24">Serology and virology</text><text x="14.968" y="534.406" class="fil1 fnt0" font-size="24">Phases of illness</text><line x1="323.173" x2="308.807" y1="107.512" y2="107.512" class="fil0 str3"/><line x1="323.173" x2="308.807" y1="137.513" y2="137.513" class="fil0 str3"/><line x1="323.173" x2="308.807" y1="122.525" y2="122.525" class="fil0 str3"/><line x1="323.173" x2="308.807" y1="152.526" y2="152.526" class="fil0 str3"/><path d="M324.098 158.653c9.33782,-32.5347 15.7796,-75.7017 72.599,-45.6981 24.4642,12.4335 33.3213,19.2662 38.7981,37.7658 6.30828,16.865 10.9536,27.0308 47.0836,6.02836 13.8071,-7.94647 6.44647,-23.3516 21.6343,-12.4359l29.5099 22.3819" class="fil0 str4"/><path d="M375.66 367.487c49.4269,14.3103 54.4785,-15.3827 60.9367,-36.228 6.42285,-23.7875 15.8103,-35.6788 54.847,17.1886 17.4272,23.5878 20.9481,44.3044 41.2501,23.9032 4.69844,-4.76576 11.6563,-6.55159 15.5965,-6.7819" class="fil0 str5"/><path d="M365.247 315.561c11.8063,-17.5843 23.2276,-6.06734 37.8119,11.811 10.3146,11.9032 32.7615,53.5773 50.1037,39.4666 23.8075,-18.417 32.2855,23.8902 57.6013,-4.66536 41.2241,-50.295 43.4009,-43.1729 52.2497,-37.6335 7.97954,4.88859 12.5799,3.77954 42.6485,-11.1402" class="fil0 str4"/><path d="M325.378 488.602c53.2855,-73.9572 39.8883,-75.0427 102.482,1.09607" class="fil0 str5"/><path d="M395.612 492.26c33.6013,1.61929 49.1139,-15.3154 75.958,-33.4477 31.6477,-21.5079 62.8844,-38.1202 212.619,-52.1493" class="fil0 str4"/><text x="333.335" y="534.048" class="fil2 fnt1" font-size="16" font-weight="bold">Febrile</text><text x="445.131" y="533.883" class="fil3 fnt1" font-size="16" font-weight="bold">Critical</text><text x="328.802" y="405.688" class="fil2 fnt1" font-size="16">viraemia</text><text x="311.6" y="360.692" class="fil2 fnt1" font-size="16">hematocrit</text><text x="311.74" y="208.647" class="fil2 fnt1" font-size="16">dehydration</text><text x="600.409" y="397.708" class="fil4 fnt1" font-size="16">IgG/IgM</text><text x="616.934" y="322.579" class="fil4 fnt1" font-size="16">platelets</text><text x="542.68" y="208.53" class="fil4 fnt1" font-size="16">reabsorption</text><text x="538.343" y="238.033" class="fil4 fnt1" font-size="16">fluid overload</text><text x="325.784" y="100.65" class="fil1 fnt1" font-size="16">40°C</text><text x="360.428" y="50.712" class="fil1 fnt1" font-size="16">1</text><text x="390.428" y="50.712" class="fil1 fnt1" font-size="16">2</text><text x="418.839" y="50.712" class="fil1 fnt1" font-size="16">3</text><text x="453.192" y="50.712" class="fil1 fnt1" font-size="16">4</text><text x="487.407" y="50.712" class="fil1 fnt1" font-size="16">5</text><text x="522.104" y="50.712" class="fil1 fnt1" font-size="16">6</text><text x="550.239" y="50.712" class="fil1 fnt1" font-size="16">7</text><text x="584.541" y="50.712" class="fil1 fnt1" font-size="16">8</text><text x="618.646" y="50.712" class="fil1 fnt1" font-size="16">9</text><text x="645.769" y="50.712" class="fil1 fnt1" font-size="16">10</text><text x="438.09" y="195.051" class="fil3 fnt2" font-size="12.5">shock</text><text x="438.09" y="213.838" class="fil3 fnt2" font-size="12.5">bleeding</text><text x="438.09" y="252.993" class="fil3 fnt2" font-size="12.5">impairment</text><text x="438.09" y="233.352" class="fil3 fnt2" font-size="12.5">organ</text><text x="556.778" y="533.883" class="fil4 fnt1" font-size="16" font-weight="bold">Recovery</text></g></svg>