<?xml version="1.0" encoding="UTF-8"?>
<!DOCTYPE svg PUBLIC "-//W3C//DTD SVG 1.1//EN" "http://www.w3.org/Graphics/SVG/1.1/DTD/svg11.dtd">
<!-- Creator: CorelDRAW -->
<svg xmlns="http://www.w3.org/2000/svg" xml:space="preserve" width="722px" height="567px" style="shape-rendering:geometricPrecision; text-rendering:geometricPrecision; image-rendering:optimizeQuality; fill-rule:evenodd; clip-rule:evenodd"
viewBox="0 0 722 567.001"
 xmlns:xlink="http://www.w3.org/1999/xlink">
 <defs>
  <style type="text/css">
   <![CDATA[
    .str1 {stroke:#4A7EBB;stroke-width:1.00394}
    .str4 {stroke:#4A7EBB;stroke-width:1.53544;stroke-linecap:round;stroke-linejoin:round}
    .str3 {stroke:black;stroke-width:2.95276}
    .str0 {stroke:#385D8A;stroke-width:2.95276}
    .str5 {stroke:#4A7EBB;stroke-width:1.53544;stroke-linecap:round;stroke-linejoin:round;stroke-dasharray:7.677182 6.141746}
    .str2 {stroke:#385D8A;stroke-width:2.95276;stroke-dasharray:8.858287 2.952762}
    .fil0 {fill:none}
    .fil1 {fill:black}
    .fil2 {fill:#385D8A}
    .fil4 {fill:#4F6228}
    .fil3 {fill:#632523}
    .fnt2 {font-weight:normal;font-size:14.5831;font-family:'Arial'}
    .fnt1 {font-weight:normal;font-size:20.8335;font-family:'Arial'}
    .fnt0 {font-weight:normal;font-size:27.0839;font-family:'Arial'}
   ]]>
  </style>
 </defs>
 <g id="Capa_x0020_1">
  <metadata id="CorelCorpID_0Corel-Layer"/>
  <rect class="fil0" x="0.0296002" y="4.01377e-005" width="721.987" height="567.014"/>
  <rect class="fil0 str0" x="308.807" y="16.6311" width="393.123" height="477.092"/>
  <line class="fil0 str1" x1="308.807" y1="281.617" x2="701.929" y2= "281.617" />
  <line class="fil0 str1" x1="308.807" y1="364.628" x2="701.929" y2= "364.628" />
  <line class="fil0 str1" x1="308.807" y1="160.536" x2="701.929" y2= "160.536" />
  <line class="fil0 str2" x1="520.791" y1="16.6311" x2="520.791" y2= "493.723" />
  <line class="fil0 str2" x1="429.756" y1="16.6311" x2="429.756" y2= "493.723" />
  <text style="font-size:24px" x="14.9681" y="54.5848"  class="fil1 fnt0">Days of illness</text>
  <text style="font-size:24px" x="14.9681" y="150.202"  class="fil1 fnt0">Temperature</text>
  <text style="font-size:24px" x="14.9681" y="246.252"  class="fil1 fnt0">Potential clinical issues</text>
  <text style="font-size:24px" x="14.9681" y="342.854"  class="fil1 fnt0">Laboratory changes</text>
  <text style="font-size:24px" x="14.9681" y="438.632"  class="fil1 fnt0">Serology and virology</text>
  <text style="font-size:24px" x="14.9681" y="534.406"  class="fil1 fnt0">Phases of illness</text>
  <line class="fil0 str3" x1="323.173" y1="107.512" x2="308.807" y2= "107.512" />
  <line class="fil0 str3" x1="323.173" y1="137.513" x2="308.807" y2= "137.513" />
  <line class="fil0 str3" x1="323.173" y1="122.525" x2="308.807" y2= "122.525" />
  <line class="fil0 str3" x1="323.173" y1="152.526" x2="308.807" y2= "152.526" />
  <path class="fil0 str4" d="M324.098 158.653c9.33782,-32.5347 15.7796,-75.7017 72.599,-45.6981 24.4642,12.4335 33.3213,19.2662 38.7981,37.7658 6.30828,16.865 10.9536,27.0308 47.0836,6.02836 13.8071,-7.94647 6.44647,-23.3516 21.6343,-12.4359l29.5099 22.3819"/>
  <path class="fil0 str5" d="M375.66 367.487c49.4269,14.3103 54.4785,-15.3827 60.9367,-36.228 6.42285,-23.7875 15.8103,-35.6788 54.847,17.1886 17.4272,23.5878 20.9481,44.3044 41.2501,23.9032 4.69844,-4.76576 11.6563,-6.55159 15.5965,-6.7819"/>
  <path class="fil0 str4" d="M365.247 315.561c11.8063,-17.5843 23.2276,-6.06734 37.8119,11.811 10.3146,11.9032 32.7615,53.5773 50.1037,39.4666 23.8075,-18.417 32.2855,23.8902 57.6013,-4.66536 41.2241,-50.295 43.4009,-43.1729 52.2497,-37.6335 7.97954,4.88859 12.5799,3.77954 42.6485,-11.1402"/>
  <path class="fil0 str5" d="M325.378 488.602c53.2855,-73.9572 39.8883,-75.0427 102.482,1.09607"/>
  <path class="fil0 str4" d="M395.612 492.26c33.6013,1.61929 49.1139,-15.3154 75.958,-33.4477 31.6477,-21.5079 62.8844,-38.1202 212.619,-52.1493"/>
  <text style="font-size:16px; font-weight:bold" x="333.335" y="534.048"  class="fil2 fnt1">Febrile</text>
  <text style="font-size:16px; font-weight:bold" x="445.131" y="533.883"  class="fil3 fnt1">Critical</text>
  <text style="font-size:16px" x="328.802" y="405.688"  class="fil2 fnt1">viraemia</text>
  <text style="font-size:16px" x="311.6" y="360.692"  class="fil2 fnt1">hematocrit</text>
  <text style="font-size:16px" x="311.74" y="208.647"  class="fil2 fnt1">dehydration</text>
  <text style="font-size:16px" x="600.409" y="397.708"  class="fil4 fnt1">IgG/IgM</text>
  <text style="font-size:16px" x="616.934" y="322.579"  class="fil4 fnt1">platelets</text>
  <text style="font-size:16px" x="542.68" y="208.53"  class="fil4 fnt1">reabsorption</text>
  <text style="font-size:16px" x="538.343" y="238.033"  class="fil4 fnt1">fluid overload</text>
  <text style="font-size:16px" x="325.784" y="100.65"  class="fil1 fnt1">40°C</text>
  <text style="font-size:16px" x="360.428" y="50.7119"  class="fil1 fnt1">1</text>
  <text style="font-size:16px" x="390.428" y="50.7119"  class="fil1 fnt1">2</text>
  <text style="font-size:16px" x="418.839" y="50.7119"  class="fil1 fnt1">3</text>
  <text style="font-size:16px" x="453.192" y="50.7119"  class="fil1 fnt1">4</text>
  <text style="font-size:16px" x="487.407" y="50.7119"  class="fil1 fnt1">5</text>
  <text style="font-size:16px" x="522.104" y="50.7119"  class="fil1 fnt1">6</text>
  <text style="font-size:16px" x="550.239" y="50.7119"  class="fil1 fnt1">7</text>
  <text style="font-size:16px" x="584.541" y="50.7119"  class="fil1 fnt1">8</text>
  <text style="font-size:16px" x="618.646" y="50.7119"  class="fil1 fnt1">9</text>
  <text style="font-size:16px" x="645.769" y="50.7119"  class="fil1 fnt1">10</text>
  <text style="font-size:12.5px" x="438.09" y="195.051"  class="fil3 fnt2">shock</text>
  <text style="font-size:12.5px" x="438.09" y="213.838"  class="fil3 fnt2">bleeding</text>
  <text style="font-size:12.5px" x="438.09" y="252.993"  class="fil3 fnt2">impairment</text>
  <text style="font-size:12.5px" x="438.09" y="233.352"  class="fil3 fnt2">organ</text>
  <text style="font-size:16px; font-weight:bold" x="556.778" y="533.883"  class="fil4 fnt1">Recovery</text>
 </g>
</svg>
